<?xml version="1.0" encoding="utf-8"?>
<svg version="1.1" xmlns:xlink="http://www.w3.org/1999/xlink" width="91px" height="85px" xmlns="http://www.w3.org/2000/svg">
  <defs>
    <mask fill="white" id="clip1">
      <path d="M 114 199  C 95.13 199  80 183.87  80 165  L 80 158  C 80 139.13  95.13 124  114 124  L 127 124  C 145.87 124  161 139.13  161 158  L 161 165  C 161 183.87  145.87 199  127 199  " fill-rule="evenodd" />
    </mask>
    <filter x="75px" y="119px" width="91px" height="85px" filterUnits="userSpaceOnUse" id="filter2">
      <feOffset dx="0" dy="0" in="SourceAlpha" result="shadowOffsetInner" />
      <feGaussianBlur stdDeviation="2.5" in="shadowOffsetInner" result="shadowGaussian" />
      <feComposite in2="shadowGaussian" operator="atop" in="SourceAlpha" result="shadowComposite" />
      <feColorMatrix type="matrix" values="0 0 0 0 0  0 0 0 0 0  0 0 0 0 0  0 0 0 0.349019607843137 0  " in="shadowComposite" />
    </filter>
    <g id="widget3">
      <path d="M 80 124  L 161 124  L 161 199  L 80 199  L 80 124  " fill-rule="nonzero" fill="#cccccc" stroke="none" mask="url(#clip1)" />
      <path d="M 85 129  L 156 129  L 156 194  L 85 194  L 85 129  " fill-rule="nonzero" fill="#ffffff" stroke="none" mask="url(#clip1)" />
      <path d="M 127.745 146.5  C 124.595 146.5  122.12 144.025  122.12 140.875  C 122.12 137.725  124.595 135.25  127.745 135.25  C 130.895 135.25  133.37 137.725  133.37 140.875  C 133.37 144.025  130.895 146.5  127.745 146.5  " fill-rule="nonzero" fill="#cccccc" stroke="none" mask="url(#clip1)" />
      <path d="M 87 192  L 87 158.45  L 103.75 143.2  L 127.2 158.111111111111  L 140.6 152.35  L 154 158.111111111111  L 154 192  L 87 192  " fill-rule="nonzero" fill="#169bd5" stroke="none" mask="url(#clip1)" />
    </g>
  </defs>
  <g transform="matrix(1 0 0 1 -75 -119 )">
    <use xlink:href="#widget3" filter="url(#filter2)" />
    <use xlink:href="#widget3" />
  </g>
</svg>